<svg version="1.1" xmlns="http://www.w3.org/2000/svg" xmlns:xlink="http://www.w3.org/1999/xlink" x="0px" y="0px"
	 viewBox="0 0 398.7 68.4" enable-background="new 0 0 398.7 68.4" xml:space="preserve">
<g>
	<defs>
		<path id="SVGID_1_" d="M159.6,51.1h-11.9v-1c0.3,0,0.8-0.1,1.4-0.1c0.6-0.1,1-0.2,1.2-0.3c0.4-0.2,0.7-0.5,0.9-0.8
			c0.2-0.4,0.3-0.9,0.3-1.5V35H133v12.1c0,0.5,0.1,1,0.2,1.4c0.2,0.4,0.5,0.7,0.9,1c0.2,0.1,0.6,0.3,1.2,0.4
			c0.6,0.1,1.1,0.2,1.4,0.2v1h-11.3v-1c0.3,0,0.8-0.1,1.4-0.1c0.6-0.1,1-0.2,1.3-0.3c0.4-0.2,0.7-0.5,0.9-0.8
			c0.2-0.4,0.3-0.9,0.3-1.5V23c0-0.5-0.1-0.9-0.3-1.4c-0.2-0.4-0.5-0.7-0.9-1c-0.4-0.2-0.8-0.4-1.3-0.5c-0.5-0.2-1-0.2-1.3-0.3v-1.6
			h11.9v1.6c-0.4,0-1.5,0.1-2,0.2c-0.6,0.1-1,0.2-1.2,0.3c-0.5,0.2-0.8,0.5-0.9,0.9c-0.2,0.4-0.2,0.9-0.2,1.4v10.2h18.5V23
			c0-0.5-0.1-0.9-0.3-1.4c-0.2-0.4-0.5-0.7-0.9-1c-0.4-0.2-0.8-0.4-1.3-0.5c-0.5-0.2-2.2-0.2-2.6-0.3v-1.6h13.8v1.6
			c-0.4,0-1.5,0.1-2,0.2c-0.6,0.1-1,0.2-1.2,0.3c-0.5,0.2-0.8,0.5-0.9,0.9c-0.2,0.4-0.2,0.9-0.2,1.4v24.3c0,0.5,0.1,1,0.2,1.4
			c0.2,0.4,0.5,0.7,0.9,1c0.2,0.1,0.6,0.3,1.2,0.4c0.6,0.1,1.1,0.2,1.4,0.2V51.1z M173.8,51.1h-11.5v-1c0.3,0,0.8-0.1,1.4-0.1
			c0.6-0.1,1-0.2,1.3-0.3c0.4-0.2,0.7-0.5,0.9-0.8c0.2-0.3,0.3-0.8,0.3-1.4V22.9c0-0.5-0.1-1-0.2-1.4c-0.1-0.4-0.4-0.7-0.9-0.9
			c-0.4-0.2-0.8-0.4-1.4-0.5c-0.5-0.2-1-0.3-1.3-0.3v-1.6h11.5v1.6c-0.4,0-0.8,0.1-1.3,0.2c-0.5,0.1-1,0.2-1.3,0.4
			c-0.5,0.2-0.8,0.5-0.9,0.9c-0.2,0.4-0.2,0.9-0.2,1.4v24.4c0,0.5,0.1,1,0.3,1.4c0.2,0.4,0.5,0.7,0.9,0.9c0.3,0.1,0.7,0.3,1.2,0.4
			c0.6,0.1,1.1,0.2,1.4,0.2V51.1z M118.1,22.7c0.4-1.7,0.7-2.8,0.8-3.5c0.1-0.6,0.2-1.2,0.2-1.6c0-1-1.1-1.5-1.9-1.9
			c-0.3-0.1-2.9-1.1-2.9-0.9v-1.3h12.5v1.9c-0.5,0-1,0.1-1.6,0.3c-0.6,0.2-1.2,0.4-1.7,0.7c-0.7,0.4-1.2,0.9-1.6,1.4
			c-0.4,0.5-0.7,1.2-1,2.2c-1.3,4.2-2.9,9.1-4.6,14.6c-1.8,5.6-3.6,11.5-5.7,17.8h-2.5L98,22.9L87.6,52.6h-2.5
			c-1.8-6.3-3.8-12.9-5.7-19.7c-2-6.8-3.3-11.4-4-13.7c-0.3-0.9-0.8-1.9-1.4-2.6c-0.1-0.1-0.6-0.4-1.1-0.7c-0.8-0.4-1.6-0.7-1.6-0.4
			v-1.9h13.1v1.3c-2.1,0.1-4,0.5-4,3c0,0.2,0,0.4,0.1,0.7c0.1,0.3,0.1,0.5,0.1,0.7c0.4,1.6,1.2,4.2,2.3,7.9
			c1.1,3.7,2.7,9.2,4.8,16.5l10.6-29.5h2.7l10,29.2L118.1,22.7z M277.3,22.7c0.4-1.7,0.7-2.8,0.8-3.5c0.1-0.6,0.2-1.2,0.2-1.6
			c0-1-1.1-1.5-1.9-1.9c-0.3-0.1-2.9-1.1-2.9-0.9v-1.3H286v1.9c-0.5,0-1,0.1-1.6,0.3c-0.6,0.2-1.2,0.4-1.7,0.7
			c-0.7,0.4-1.2,0.9-1.6,1.4c-0.4,0.5-0.8,1.2-1,2.2c-1.3,4.2-2.9,9.1-4.6,14.6c-1.8,5.6-3.6,11.5-5.7,17.8h-2.5l-10.1-29.7
			l-10.4,29.7h-2.5c-1.8-6.3-3.8-12.9-5.7-19.7c-2-6.8-3.3-11.4-4-13.7c-0.3-0.9-0.8-1.9-1.4-2.6c-0.1-0.1-0.6-0.4-1.1-0.7
			c-0.8-0.4-1.6-0.7-1.6-0.4v-1.9h13.1v1.3c-2.1,0.1-4,0.5-4,3c0,0.2,0,0.4,0.1,0.7c0.1,0.3,0.1,0.5,0.1,0.7
			c0.4,1.6,1.2,4.2,2.3,7.9c1.1,3.7,2.7,9.2,4.8,16.5l10.6-29.5h2.7l10,29.2L277.3,22.7z M309.4,51.1h-13v-1
			c1.1-0.1,2.1-0.2,2.8-0.5c0.8-0.2,1.1-0.5,1.1-0.9c0-0.1,0-0.3,0-0.5c0-0.2-0.1-0.4-0.1-0.5l-2.6-8h-10.9c-0.4,1.1-0.8,2.6-1,3.4
			c-0.3,0.8-0.5,1.5-0.7,2.2c-0.2,0.7-0.3,1.2-0.4,1.6c-0.1,0.4-0.1,0.8-0.1,1c0,0.6,0.5,1.1,1.4,1.4c0.9,0.3,2,0.5,3.1,0.6v1h-11.7
			v-1c0.4,0,0.9-0.1,1.4-0.3c0.6-0.1,1-0.3,1.4-0.6c0.6-0.4,1-0.8,1.4-1.3c0.3-0.4,0.6-1.1,0.9-1.9c1.6-4.1,3.3-9.3,5.2-14.3
			c1.9-5.1,3.6-9.6,5-13.6h1.8l10.4,28.6c0.2,0.6,0.5,1.1,0.7,1.4c0.3,0.4,0.7,0.7,1.2,1.1c0.3,0.2,0.8,0.4,1.3,0.5
			c0.5,0.1,1,0.2,1.4,0.2V51.1z M296.9,37.8l-4.7-12.6l-4.6,12.6H296.9z M385.8,51.1H378c-1.7-3.1-3.3-5.1-4.6-7.3
			c-1.4-2.2-2.9-5.1-4.5-7.5h-3v11c0,0.5,0.1,1,0.2,1.4c0.1,0.4,0.5,0.7,1,0.9c0.2,0.1,0.7,0.2,1.3,0.3c0.6,0.1,1.1,0.1,1.6,0.2v1
			h-12.2v-1c0.3,0,0.8-0.1,1.4-0.2c0.6-0.1,1-0.2,1.3-0.3c0.4-0.2,0.7-0.5,0.9-0.9c0.2-0.4,0.3-0.9,0.3-1.5V22.8
			c0-0.5-0.1-1-0.2-1.4c-0.1-0.4-0.4-0.7-0.9-1c-0.3-0.1-0.8-0.3-1.3-0.4c-0.5-0.1-1-0.2-1.4-0.2v-1.6H371c1.2,0,2.4,0.1,3.4,0.4
			c1.1,0.3,2,0.7,2.9,1.4c0.8,0.6,1.5,1.4,2,2.4c0.5,1,0.8,2.2,0.8,3.6c0,1.3-0.2,2.4-0.5,3.4c-0.3,1-0.8,1.8-1.5,2.5
			c-0.6,0.7-1.3,1.2-2.2,1.7c-0.9,0.5-1.8,0.9-2.8,1.2c1.4,2.1,2.6,3.9,3.5,5.4c0.9,1.5,2.1,3.9,3.5,6c0.6,0.9,1.1,1.6,1.6,2
			c0.5,0.4,1,0.8,1.4,1.1c0.4,0.2,0.8,0.4,1.3,0.5c0.5,0.1,1,0.2,1.3,0.2V51.1z M375.1,26.6c0-2-0.5-3.6-1.5-4.7
			c-1-1.2-2.4-1.8-4.3-1.8h-3.5v14.1h2.7c1.9,0,3.4-0.7,4.7-2.1C374.5,30.8,375.1,28.9,375.1,26.6z M391.3,54.4v-5.7h2.5
			c0.5,0,0.9,0.1,1.2,0.2c0.3,0.1,0.5,0.3,0.6,0.5c0.2,0.3,0.2,0.5,0.2,0.9c0,0.4-0.1,0.7-0.4,1c-0.3,0.3-0.7,0.5-1.2,0.5
			c0.2,0.1,0.4,0.2,0.5,0.3c0.2,0.2,0.4,0.5,0.6,0.8l1,1.5h-0.9l-0.8-1.2c-0.2-0.3-0.4-0.6-0.5-0.8c-0.1-0.2-0.3-0.3-0.4-0.4
			c-0.1-0.1-0.2-0.1-0.3-0.2c-0.1,0-0.2,0-0.4,0H392v2.5H391.3z M392,51.2h1.6c0.3,0,0.6,0,0.8-0.1c0.2-0.1,0.3-0.2,0.4-0.3
			c0.1-0.2,0.1-0.3,0.1-0.5c0-0.3-0.1-0.5-0.3-0.7c-0.2-0.2-0.5-0.3-0.9-0.3H392V51.2z M388.9,51.5c0,2.7,2.2,4.9,4.9,4.9
			c2.7,0,4.9-2.2,4.9-4.9c0-2.7-2.2-4.9-4.9-4.9C391.1,46.6,388.9,48.8,388.9,51.5z M389.8,51.5c0-2.2,1.8-4,4-4c2.2,0,4,1.8,4,4
			c0,2.2-1.8,4-4,4C391.6,55.5,389.8,53.7,389.8,51.5z M193.1,50c-1,0-1.9-0.7-2.3-1.6c-0.2-0.4-0.3-0.9-0.3-1.4v-26c0,0,7,0,8.8,0
			c1.8,0,2.5,3.8,2.5,3.8h0.3v-6.5h-26.6v6.5h0.3c0,0,0.7-3.8,2.5-3.8c1.8,0,8.8,0,8.8,0v26c0,1.6-1.2,3-2.8,3c-0.7,0-1.4,0.1-2,0.1
			v1h13.2v-1C195.3,50,193.3,50,193.1,50z M323.1,50c-1,0-1.9-0.7-2.3-1.6c-0.2-0.4-0.3-0.9-0.3-1.4v-26c0,0,6.9,0,8.8,0
			c1.8,0,2.5,3.8,2.5,3.8h0.3v-6.5h-26.6v6.5h0.3c0,0,0.7-3.8,2.5-3.8c1.8,0,8.8,0,8.8,0v26c0,1.6-1.2,3-2.8,3c-0.7,0-1.4,0.1-2,0.1
			v1h13.2v-1C325.3,50,323.2,50,323.1,50z M222.1,48.4c-1.5,0.6-3,1-4.6,1c-3.3,0-6-1.5-6-1.5v-0.8v-0.5V34.7h3.8c1,0,4.7-0.1,5.3,0
			c2,0.2,2,1.7,2,1.7c0.2,0.7,0.3,1.5,0.4,2.1h1.5V29h-1.5c-0.1,0.7-0.2,1.4-0.4,2.1c0,0,0,1.5-2,1.7c-0.5,0.1-4.2,0-5.3,0h-3.8
			V20.1l9.7-0.1c0.8,0.1,2.6,0.8,3.5,2.1c0.9,1.3,1.1,1.6,1.4,2.8h0.8v-6.7h-23.1v1c0.4,0,0.8,0.1,1.4,0.3c0.6,0.2,1.1,0.3,1.4,0.5
			c0.5,0.2,0.8,0.6,0.9,1c0.1,0.4,0.2,0.8,0.2,1.4v20v2.1v2.5c0,0.5-0.1,1-0.2,1.4c-0.1,0.4-0.5,0.7-0.9,1c-0.4,0.2-0.8,0.4-1.4,0.5
			c-0.6,0.2-1.1,0.2-1.4,0.3v1h23.1v-6.7h-0.8c-0.3,1.2-0.8,2-1.5,2.6C223.9,47.6,223,48,222.1,48.4z M352,48.4c-1.5,0.6-3,1-4.6,1
			c-3.3,0-6-1.5-6-1.5v-0.8v-0.5V34.7h3.8c1,0,4.7-0.1,5.3,0c2,0.2,2,1.7,2,1.7c0.2,0.7,0.3,1.5,0.4,2.1h1.5V29h-1.5
			c-0.1,0.7-0.2,1.4-0.4,2.1c0,0,0,1.5-2,1.7c-0.5,0.1-4.2,0-5.3,0h-3.8V20.1l9.7-0.1c0.8,0.1,2.6,0.8,3.5,2.1
			c0.9,1.3,1.1,1.6,1.4,2.8h0.8v-6.7h-23.1v1c0.4,0,0.8,0.1,1.4,0.3c0.6,0.2,1.1,0.3,1.4,0.5c0.5,0.2,0.8,0.6,0.9,1
			c0.1,0.4,0.2,0.8,0.2,1.4v20v2.1v2.5c0,0.5-0.1,1-0.2,1.4c-0.1,0.4-0.5,0.7-0.9,1c-0.4,0.2-0.8,0.4-1.4,0.5
			c-0.6,0.2-1.1,0.2-1.4,0.3v1h23.1v-6.7H356c-0.3,1.2-0.8,2-1.5,2.6C353.8,47.6,353,48,352,48.4z"/>
	</defs>
	<use xlink:href="#SVGID_1_"  overflow="visible" fill="#FFFFFF"/>
	<clipPath id="SVGID_2_">
		<use xlink:href="#SVGID_1_"  overflow="visible"/>
	</clipPath>
						<path fill="#FFFFFF" d="M159.6,51.1h-11.9v-1c0.3,0,0.8-0.1,1.4-0.1c0.6-0.1,1-0.2,1.2-0.3c0.4-0.2,0.7-0.5,0.9-0.8
							c0.2-0.4,0.3-0.9,0.3-1.5V35H133v12.1c0,0.5,0.1,1,0.2,1.4c0.2,0.4,0.5,0.7,0.9,1c0.2,0.1,0.6,0.3,1.2,0.4
							c0.6,0.1,1.1,0.2,1.4,0.2v1h-11.3v-1c0.3,0,0.8-0.1,1.4-0.1c0.6-0.1,1-0.2,1.3-0.3c0.4-0.2,0.7-0.5,0.9-0.8
							c0.2-0.4,0.3-0.9,0.3-1.5V23c0-0.5-0.1-0.9-0.3-1.4c-0.2-0.4-0.5-0.7-0.9-1c-0.4-0.2-0.8-0.4-1.3-0.5c-0.5-0.2-1-0.2-1.3-0.3
							v-1.6h11.9v1.6c-0.4,0-1.5,0.1-2,0.2c-0.6,0.1-1,0.2-1.2,0.3c-0.5,0.2-0.8,0.5-0.9,0.9c-0.2,0.4-0.2,0.9-0.2,1.4v10.2h18.5V23
							c0-0.5-0.1-0.9-0.3-1.4c-0.2-0.4-0.5-0.7-0.9-1c-0.4-0.2-0.8-0.4-1.3-0.5c-0.5-0.2-2.2-0.2-2.6-0.3v-1.6h13.8v1.6
							c-0.4,0-1.5,0.1-2,0.2c-0.6,0.1-1,0.2-1.2,0.3c-0.5,0.2-0.8,0.5-0.9,0.9c-0.2,0.4-0.2,0.9-0.2,1.4v24.3c0,0.5,0.1,1,0.2,1.4
							c0.2,0.4,0.5,0.7,0.9,1c0.2,0.1,0.6,0.3,1.2,0.4c0.6,0.1,1.1,0.2,1.4,0.2V51.1z"/>
						<path fill="#FFFFFF" d="M173.8,51.1h-11.5v-1c0.3,0,0.8-0.1,1.4-0.1c0.6-0.1,1-0.2,1.3-0.3c0.4-0.2,0.7-0.5,0.9-0.8
							c0.2-0.3,0.3-0.8,0.3-1.4V22.9c0-0.5-0.1-1-0.2-1.4c-0.1-0.4-0.4-0.7-0.9-0.9c-0.4-0.2-0.8-0.4-1.4-0.5
							c-0.5-0.2-1-0.3-1.3-0.3v-1.6h11.5v1.6c-0.4,0-0.8,0.1-1.3,0.2c-0.5,0.1-1,0.2-1.3,0.4c-0.5,0.2-0.8,0.5-0.9,0.9
							c-0.2,0.4-0.2,0.9-0.2,1.4v24.4c0,0.5,0.1,1,0.3,1.4c0.2,0.4,0.5,0.7,0.9,0.9c0.3,0.1,0.7,0.3,1.2,0.4
							c0.6,0.1,1.1,0.2,1.4,0.2V51.1z"/>
						<path fill="#FFFFFF" d="M118.1,22.7c0.4-1.7,0.7-2.8,0.8-3.5c0.1-0.6,0.2-1.2,0.2-1.6c0-1-1.1-1.5-1.9-1.9
							c-0.3-0.1-2.9-1.1-2.9-0.9v-1.3h12.5v1.9c-0.5,0-1,0.1-1.6,0.3c-0.6,0.2-1.2,0.4-1.7,0.7c-0.7,0.4-1.2,0.9-1.6,1.4
							c-0.4,0.5-0.7,1.2-1,2.2c-1.3,4.2-2.9,9.1-4.6,14.6c-1.8,5.6-3.6,11.5-5.7,17.8h-2.5L98,22.9L87.6,52.6h-2.5
							c-1.8-6.3-3.8-12.9-5.7-19.7c-2-6.8-3.3-11.4-4-13.7c-0.3-0.9-0.8-1.9-1.4-2.6c-0.1-0.1-0.6-0.4-1.1-0.7
							c-0.8-0.4-1.6-0.7-1.6-0.4v-1.9h13.1v1.3c-2.1,0.1-4,0.5-4,3c0,0.2,0,0.4,0.1,0.7c0.1,0.3,0.1,0.5,0.1,0.7
							c0.4,1.6,1.2,4.2,2.3,7.9c1.1,3.7,2.7,9.2,4.8,16.5l10.6-29.5h2.7l10,29.2L118.1,22.7z"/>
						<path fill="#FFFFFF" d="M277.3,22.7c0.4-1.7,0.7-2.8,0.8-3.5c0.1-0.6,0.2-1.2,0.2-1.6c0-1-1.1-1.5-1.9-1.9
							c-0.3-0.1-2.9-1.1-2.9-0.9v-1.3H286v1.9c-0.5,0-1,0.1-1.6,0.3c-0.6,0.2-1.2,0.4-1.7,0.7c-0.7,0.4-1.2,0.9-1.6,1.4
							c-0.4,0.5-0.8,1.2-1,2.2c-1.3,4.2-2.9,9.1-4.6,14.6c-1.8,5.6-3.6,11.5-5.7,17.8h-2.5l-10.1-29.7l-10.4,29.7h-2.5
							c-1.8-6.3-3.8-12.9-5.7-19.7c-2-6.8-3.3-11.4-4-13.7c-0.3-0.9-0.8-1.9-1.4-2.6c-0.1-0.1-0.6-0.4-1.1-0.7
							c-0.8-0.4-1.6-0.7-1.6-0.4v-1.9h13.1v1.3c-2.1,0.1-4,0.5-4,3c0,0.2,0,0.4,0.1,0.7c0.1,0.3,0.1,0.5,0.1,0.7
							c0.4,1.6,1.2,4.2,2.3,7.9c1.1,3.7,2.7,9.2,4.8,16.5l10.6-29.5h2.7l10,29.2L277.3,22.7z"/>
						<path fill="#FFFFFF" d="M309.4,51.1h-13v-1c1.1-0.1,2.1-0.2,2.8-0.5c0.8-0.2,1.1-0.5,1.1-0.9c0-0.1,0-0.3,0-0.5
							c0-0.2-0.1-0.4-0.1-0.5l-2.6-8h-10.9c-0.4,1.1-0.8,2.6-1,3.4c-0.3,0.8-0.5,1.5-0.7,2.2c-0.2,0.7-0.3,1.2-0.4,1.6
							c-0.1,0.4-0.1,0.8-0.1,1c0,0.6,0.5,1.1,1.4,1.4c0.9,0.3,2,0.5,3.1,0.6v1h-11.7v-1c0.4,0,0.9-0.1,1.4-0.3
							c0.6-0.1,1-0.3,1.4-0.6c0.6-0.4,1-0.8,1.4-1.3c0.3-0.4,0.6-1.1,0.9-1.9c1.6-4.1,3.3-9.3,5.2-14.3c1.9-5.1,3.6-9.6,5-13.6h1.8
							l10.4,28.6c0.2,0.6,0.5,1.1,0.7,1.4c0.3,0.4,0.7,0.7,1.2,1.1c0.3,0.2,0.8,0.4,1.3,0.5c0.5,0.1,1,0.2,1.4,0.2V51.1z
							 M296.9,37.8l-4.7-12.6l-4.6,12.6H296.9z"/>
						<path fill="#FFFFFF" d="M385.8,51.1H378c-1.7-3.1-3.3-5.1-4.6-7.3c-1.4-2.2-2.9-5.1-4.5-7.5h-3v11c0,0.5,0.1,1,0.2,1.4
							c0.1,0.4,0.5,0.7,1,0.9c0.2,0.1,0.7,0.2,1.3,0.3c0.6,0.1,1.1,0.1,1.6,0.2v1h-12.2v-1c0.3,0,0.8-0.1,1.4-0.2
							c0.6-0.1,1-0.2,1.3-0.3c0.4-0.2,0.7-0.5,0.9-0.9c0.2-0.4,0.3-0.9,0.3-1.5V22.8c0-0.5-0.1-1-0.2-1.4c-0.1-0.4-0.4-0.7-0.9-1
							c-0.3-0.1-0.8-0.3-1.3-0.4c-0.5-0.1-1-0.2-1.4-0.2v-1.6H371c1.2,0,2.4,0.1,3.4,0.4c1.1,0.3,2,0.7,2.9,1.4
							c0.8,0.6,1.5,1.4,2,2.4c0.5,1,0.8,2.2,0.8,3.6c0,1.3-0.2,2.4-0.5,3.4c-0.3,1-0.8,1.8-1.5,2.5c-0.6,0.7-1.3,1.2-2.2,1.7
							c-0.9,0.5-1.8,0.9-2.8,1.2c1.4,2.1,2.6,3.9,3.5,5.4c0.9,1.5,2.1,3.9,3.5,6c0.6,0.9,1.1,1.6,1.6,2c0.5,0.4,1,0.8,1.4,1.1
							c0.4,0.2,0.8,0.4,1.3,0.5c0.5,0.1,1,0.2,1.3,0.2V51.1z M375.1,26.6c0-2-0.5-3.6-1.5-4.7c-1-1.2-2.4-1.8-4.3-1.8h-3.5v14.1h2.7
							c1.9,0,3.4-0.7,4.7-2.1C374.5,30.8,375.1,28.9,375.1,26.6z"/>
								<path fill="#FFFFFF" d="M391.3,54.4v-5.7h2.5c0.5,0,0.9,0.1,1.2,0.2c0.3,0.1,0.5,0.3,0.6,0.5c0.2,0.3,0.2,0.5,0.2,0.9
									c0,0.4-0.1,0.7-0.4,1c-0.3,0.3-0.7,0.5-1.2,0.5c0.2,0.1,0.4,0.2,0.5,0.3c0.2,0.2,0.4,0.5,0.6,0.8l1,1.5h-0.9l-0.8-1.2
									c-0.2-0.3-0.4-0.6-0.5-0.8c-0.1-0.2-0.3-0.3-0.4-0.4c-0.1-0.1-0.2-0.1-0.3-0.2c-0.1,0-0.2,0-0.4,0H392v2.5H391.3z M392,51.2
									h1.6c0.3,0,0.6,0,0.8-0.1c0.2-0.1,0.3-0.2,0.4-0.3c0.1-0.2,0.1-0.3,0.1-0.5c0-0.3-0.1-0.5-0.3-0.7c-0.2-0.2-0.5-0.3-0.9-0.3
									H392V51.2z"/>
						<path fill="#FFFFFF" d="M195.3,50.1v1h-13.2v-1c0.7,0,1.4-0.1,2-0.1c1.6-0.1,2.8-1.4,2.8-3v-26c0,0-6.9,0-8.8,0
							c-1.8,0-2.5,3.8-2.5,3.8h-0.3v-6.5H202v6.5h-0.3c0,0-0.7-3.8-2.5-3.8c-1.8,0-8.8,0-8.8,0v26c0,0.5,0.1,1,0.3,1.4
							c0.4,0.9,1.3,1.6,2.3,1.6C193.3,50,195.3,50,195.3,50.1z"/>
						<path fill="#FFFFFF" d="M325.3,50.1v1h-13.2v-1c0.7,0,1.4-0.1,2-0.1c1.6-0.1,2.8-1.4,2.8-3v-26c0,0-6.9,0-8.8,0
							c-1.8,0-2.5,3.8-2.5,3.8h-0.3v-6.5H332v6.5h-0.3c0,0-0.7-3.8-2.5-3.8c-1.8,0-8.8,0-8.8,0v26c0,0.5,0.1,1,0.3,1.4
							c0.4,0.9,1.3,1.6,2.3,1.6C323.2,50,325.3,50,325.3,50.1z"/>
						<path fill="#FFFFFF" d="M224.5,47c0.7-0.6,1.3-1.5,1.5-2.6h0.8v6.7h-23.1v-1c0.4,0,0.8-0.1,1.4-0.3c0.6-0.2,1.1-0.3,1.4-0.5
							c0.5-0.2,0.8-0.6,0.9-1c0.1-0.4,0.2-0.8,0.2-1.4v-2.5v-2.1v-20c0-0.5-0.1-1-0.2-1.4c-0.1-0.4-0.5-0.7-0.9-1
							c-0.4-0.2-0.8-0.4-1.4-0.5c-0.6-0.2-1.1-0.2-1.4-0.3v-1h23.1v6.7h-0.8c-0.3-1.2-0.5-1.5-1.4-2.8c-0.9-1.3-2.7-2-3.5-2.1
							l-9.7,0.1v12.7h3.8c1,0,4.7,0.1,5.3,0c2-0.2,2-1.7,2-1.7c0.2-0.7,0.3-1.5,0.4-2.1h1.5v9.5h-1.5c-0.1-0.7-0.2-1.4-0.4-2.1
							c0,0,0-1.5-2-1.7c-0.5-0.1-4.2,0-5.3,0h-3.8v11.8v0.5v0.8c0,0,2.6,1.5,6,1.5c1.6,0,3.1-0.4,4.6-1C223,48,223.9,47.6,224.5,47z
							"/>
						<path fill="#FFFFFF" d="M354.5,47c0.7-0.6,1.3-1.5,1.5-2.6h0.8v6.7h-23.1v-1c0.4,0,0.8-0.1,1.4-0.3c0.6-0.2,1.1-0.3,1.4-0.5
							c0.5-0.2,0.8-0.6,0.9-1c0.1-0.4,0.2-0.8,0.2-1.4v-2.5v-2.1v-20c0-0.5-0.1-1-0.2-1.4c-0.1-0.4-0.5-0.7-0.9-1
							c-0.4-0.2-0.8-0.4-1.4-0.5c-0.6-0.2-1.1-0.2-1.4-0.3v-1h23.1v6.7H356c-0.3-1.2-0.5-1.5-1.4-2.8c-0.9-1.3-2.7-2-3.5-2.1
							l-9.7,0.1v12.7h3.8c1,0,4.7,0.1,5.3,0c2-0.2,2-1.7,2-1.7c0.2-0.7,0.3-1.5,0.4-2.1h1.5v9.5h-1.5c-0.1-0.7-0.2-1.4-0.4-2.1
							c0,0,0-1.5-2-1.7c-0.5-0.1-4.2,0-5.3,0h-3.8v11.8v0.5v0.8c0,0,2.6,1.5,6,1.5c1.6,0,3.1-0.4,4.6-1C353,48,353.8,47.6,354.5,47z
							"/>
				<path fill="#FFFFFF" d="M159.6,51.1h-11.9v-1c0.3,0,0.8-0.1,1.4-0.1c0.6-0.1,1-0.2,1.2-0.3c0.4-0.2,0.7-0.5,0.9-0.8
					c0.2-0.4,0.3-0.9,0.3-1.5V35H133v12.1c0,0.5,0.1,1,0.2,1.4c0.2,0.4,0.5,0.7,0.9,1c0.2,0.1,0.6,0.3,1.2,0.4
					c0.6,0.1,1.1,0.2,1.4,0.2v1h-11.3v-1c0.3,0,0.8-0.1,1.4-0.1c0.6-0.1,1-0.2,1.3-0.3c0.4-0.2,0.7-0.5,0.9-0.8
					c0.2-0.4,0.3-0.9,0.3-1.5V23c0-0.5-0.1-0.9-0.3-1.4c-0.2-0.4-0.5-0.7-0.9-1c-0.4-0.2-0.8-0.4-1.3-0.5c-0.5-0.2-1-0.2-1.3-0.3
					v-1.6h11.9v1.6c-0.4,0-1.5,0.1-2,0.2c-0.6,0.1-1,0.2-1.2,0.3c-0.5,0.2-0.8,0.5-0.9,0.9c-0.2,0.4-0.2,0.9-0.2,1.4v10.2h18.5V23
					c0-0.5-0.1-0.9-0.3-1.4c-0.2-0.4-0.5-0.7-0.9-1c-0.4-0.2-0.8-0.4-1.3-0.5c-0.5-0.2-2.2-0.2-2.6-0.3v-1.6h13.8v1.6
					c-0.4,0-1.5,0.1-2,0.2c-0.6,0.1-1,0.2-1.2,0.3c-0.5,0.2-0.8,0.5-0.9,0.9c-0.2,0.4-0.2,0.9-0.2,1.4v24.3c0,0.5,0.1,1,0.2,1.4
					c0.2,0.4,0.5,0.7,0.9,1c0.2,0.1,0.6,0.3,1.2,0.4c0.6,0.1,1.1,0.2,1.4,0.2V51.1z"/>
				<path fill="#FFFFFF" d="M173.8,51.1h-11.5v-1c0.3,0,0.8-0.1,1.4-0.1c0.6-0.1,1-0.2,1.3-0.3c0.4-0.2,0.7-0.5,0.9-0.8
					c0.2-0.3,0.3-0.8,0.3-1.4V22.9c0-0.5-0.1-1-0.2-1.4c-0.1-0.4-0.4-0.7-0.9-0.9c-0.4-0.2-0.8-0.4-1.4-0.5c-0.5-0.2-1-0.3-1.3-0.3
					v-1.6h11.5v1.6c-0.4,0-0.8,0.1-1.3,0.2c-0.5,0.1-1,0.2-1.3,0.4c-0.5,0.2-0.8,0.5-0.9,0.9c-0.2,0.4-0.2,0.9-0.2,1.4v24.4
					c0,0.5,0.1,1,0.3,1.4c0.2,0.4,0.5,0.7,0.9,0.9c0.3,0.1,0.7,0.3,1.2,0.4c0.6,0.1,1.1,0.2,1.4,0.2V51.1z"/>
				<path fill="#FFFFFF" d="M118.1,22.7c0.4-1.7,0.7-2.8,0.8-3.5c0.1-0.6,0.2-1.2,0.2-1.6c0-1-1.1-1.5-1.9-1.9
					c-0.3-0.1-2.9-1.1-2.9-0.9v-1.3h12.5v1.9c-0.5,0-1,0.1-1.6,0.3c-0.6,0.2-1.2,0.4-1.7,0.7c-0.7,0.4-1.2,0.9-1.6,1.4
					c-0.4,0.5-0.7,1.2-1,2.2c-1.3,4.2-2.9,9.1-4.6,14.6c-1.8,5.6-3.6,11.5-5.7,17.8h-2.5L98,22.9L87.6,52.6h-2.5
					c-1.8-6.3-3.8-12.9-5.7-19.7c-2-6.8-3.3-11.4-4-13.7c-0.3-0.9-0.8-1.9-1.4-2.6c-0.1-0.1-0.6-0.4-1.1-0.7
					c-0.8-0.4-1.6-0.7-1.6-0.4v-1.9h13.1v1.3c-2.1,0.1-4,0.5-4,3c0,0.2,0,0.4,0.1,0.7c0.1,0.3,0.1,0.5,0.1,0.7
					c0.4,1.6,1.2,4.2,2.3,7.9c1.1,3.7,2.7,9.2,4.8,16.5l10.6-29.5h2.7l10,29.2L118.1,22.7z"/>
				<path fill="#FFFFFF" d="M277.3,22.7c0.4-1.7,0.7-2.8,0.8-3.5c0.1-0.6,0.2-1.2,0.2-1.6c0-1-1.1-1.5-1.9-1.9
					c-0.3-0.1-2.9-1.1-2.9-0.9v-1.3H286v1.9c-0.5,0-1,0.1-1.6,0.3c-0.6,0.2-1.2,0.4-1.7,0.7c-0.7,0.4-1.2,0.9-1.6,1.4
					c-0.4,0.5-0.8,1.2-1,2.2c-1.3,4.2-2.9,9.1-4.6,14.6c-1.8,5.6-3.6,11.5-5.7,17.8h-2.5l-10.1-29.7l-10.4,29.7h-2.5
					c-1.8-6.3-3.8-12.9-5.7-19.7c-2-6.8-3.3-11.4-4-13.7c-0.3-0.9-0.8-1.9-1.4-2.6c-0.1-0.1-0.6-0.4-1.1-0.7
					c-0.8-0.4-1.6-0.7-1.6-0.4v-1.9h13.1v1.3c-2.1,0.1-4,0.5-4,3c0,0.2,0,0.4,0.1,0.7c0.1,0.3,0.1,0.5,0.1,0.7
					c0.4,1.6,1.2,4.2,2.3,7.9c1.1,3.7,2.7,9.2,4.8,16.5l10.6-29.5h2.7l10,29.2L277.3,22.7z"/>
				<path fill="#FFFFFF" d="M309.4,51.1h-13v-1c1.1-0.1,2.1-0.2,2.8-0.5c0.8-0.2,1.1-0.5,1.1-0.9c0-0.1,0-0.3,0-0.5
					c0-0.2-0.1-0.4-0.1-0.5l-2.6-8h-10.9c-0.4,1.1-0.8,2.6-1,3.4c-0.3,0.8-0.5,1.5-0.7,2.2c-0.2,0.7-0.3,1.2-0.4,1.6
					c-0.1,0.4-0.1,0.8-0.1,1c0,0.6,0.5,1.1,1.4,1.4c0.9,0.3,2,0.5,3.1,0.6v1h-11.7v-1c0.4,0,0.9-0.1,1.4-0.3c0.6-0.1,1-0.3,1.4-0.6
					c0.6-0.4,1-0.8,1.4-1.3c0.3-0.4,0.6-1.1,0.9-1.9c1.6-4.1,3.3-9.3,5.2-14.3c1.9-5.1,3.6-9.6,5-13.6h1.8l10.4,28.6
					c0.2,0.6,0.5,1.1,0.7,1.4c0.3,0.4,0.7,0.7,1.2,1.1c0.3,0.2,0.8,0.4,1.3,0.5c0.5,0.1,1,0.2,1.4,0.2V51.1z M296.9,37.8l-4.7-12.6
					l-4.6,12.6H296.9z"/>
				<path fill="#FFFFFF" d="M385.8,51.1H378c-1.7-3.1-3.3-5.1-4.6-7.3c-1.4-2.2-2.9-5.1-4.5-7.5h-3v11c0,0.5,0.1,1,0.2,1.4
					c0.1,0.4,0.5,0.7,1,0.9c0.2,0.1,0.7,0.2,1.3,0.3c0.6,0.1,1.1,0.1,1.6,0.2v1h-12.2v-1c0.3,0,0.8-0.1,1.4-0.2
					c0.6-0.1,1-0.2,1.3-0.3c0.4-0.2,0.7-0.5,0.9-0.9c0.2-0.4,0.3-0.9,0.3-1.5V22.8c0-0.5-0.1-1-0.2-1.4c-0.1-0.4-0.4-0.7-0.9-1
					c-0.3-0.1-0.8-0.3-1.3-0.4c-0.5-0.1-1-0.2-1.4-0.2v-1.6H371c1.2,0,2.4,0.1,3.4,0.4c1.1,0.3,2,0.7,2.9,1.4c0.8,0.6,1.5,1.4,2,2.4
					c0.5,1,0.8,2.2,0.8,3.6c0,1.3-0.2,2.4-0.5,3.4c-0.3,1-0.8,1.8-1.5,2.5c-0.6,0.7-1.3,1.2-2.2,1.7c-0.9,0.5-1.8,0.9-2.8,1.2
					c1.4,2.1,2.6,3.9,3.5,5.4c0.9,1.5,2.1,3.9,3.5,6c0.6,0.9,1.1,1.6,1.6,2c0.5,0.4,1,0.8,1.4,1.1c0.4,0.2,0.8,0.4,1.3,0.5
					c0.5,0.1,1,0.2,1.3,0.2V51.1z M375.1,26.6c0-2-0.5-3.6-1.5-4.7c-1-1.2-2.4-1.8-4.3-1.8h-3.5v14.1h2.7c1.9,0,3.4-0.7,4.7-2.1
					C374.5,30.8,375.1,28.9,375.1,26.6z"/>
						<path fill="#FFFFFF" d="M391.3,54.4v-5.7h2.5c0.5,0,0.9,0.1,1.2,0.2c0.3,0.1,0.5,0.3,0.6,0.5c0.2,0.3,0.2,0.5,0.2,0.9
							c0,0.4-0.1,0.7-0.4,1c-0.3,0.3-0.7,0.5-1.2,0.5c0.2,0.1,0.4,0.2,0.5,0.3c0.2,0.2,0.4,0.5,0.6,0.8l1,1.5h-0.9l-0.8-1.2
							c-0.2-0.3-0.4-0.6-0.5-0.8c-0.1-0.2-0.3-0.3-0.4-0.4c-0.1-0.1-0.2-0.1-0.3-0.2c-0.1,0-0.2,0-0.4,0H392v2.5H391.3z M392,51.2
							h1.6c0.3,0,0.6,0,0.8-0.1c0.2-0.1,0.3-0.2,0.4-0.3c0.1-0.2,0.1-0.3,0.1-0.5c0-0.3-0.1-0.5-0.3-0.7c-0.2-0.2-0.5-0.3-0.9-0.3
							H392V51.2z"/>
				<path fill="#FFFFFF" d="M388.9,51.5c0,2.7,2.2,4.9,4.9,4.9c2.7,0,4.9-2.2,4.9-4.9c0-2.7-2.2-4.9-4.9-4.9
					C391.1,46.6,388.9,48.8,388.9,51.5z M389.8,51.5c0-2.2,1.8-4,4-4c2.2,0,4,1.8,4,4c0,2.2-1.8,4-4,4
					C391.6,55.5,389.8,53.7,389.8,51.5z"/>
				<path fill="#FFFFFF" d="M195.3,50.1v1h-13.2v-1c0.7,0,1.4-0.1,2-0.1c1.6-0.1,2.8-1.4,2.8-3v-26c0,0-6.9,0-8.8,0
					c-1.8,0-2.5,3.8-2.5,3.8h-0.3v-6.5H202v6.5h-0.3c0,0-0.7-3.8-2.5-3.8c-1.8,0-8.8,0-8.8,0v26c0,0.5,0.1,1,0.3,1.4
					c0.4,0.9,1.3,1.6,2.3,1.6C193.3,50,195.3,50,195.3,50.1z"/>
				<path fill="#FFFFFF" d="M325.3,50.1v1h-13.2v-1c0.7,0,1.4-0.1,2-0.1c1.6-0.1,2.8-1.4,2.8-3v-26c0,0-6.9,0-8.8,0
					c-1.8,0-2.5,3.8-2.5,3.8h-0.3v-6.5H332v6.5h-0.3c0,0-0.7-3.8-2.5-3.8c-1.8,0-8.8,0-8.8,0v26c0,0.5,0.1,1,0.3,1.4
					c0.4,0.9,1.3,1.6,2.3,1.6C323.2,50,325.3,50,325.3,50.1z"/>
				<path fill="#FFFFFF" d="M224.5,47c0.7-0.6,1.3-1.5,1.5-2.6h0.8v6.7h-23.1v-1c0.4,0,0.8-0.1,1.4-0.3c0.6-0.2,1.1-0.3,1.4-0.5
					c0.5-0.2,0.8-0.6,0.9-1c0.1-0.4,0.2-0.8,0.2-1.4v-2.5v-2.1v-20c0-0.5-0.1-1-0.2-1.4c-0.1-0.4-0.5-0.7-0.9-1
					c-0.4-0.2-0.8-0.4-1.4-0.5c-0.6-0.2-1.1-0.2-1.4-0.3v-1h23.1v6.7h-0.8c-0.3-1.2-0.5-1.5-1.4-2.8c-0.9-1.3-2.7-2-3.5-2.1
					l-9.7,0.1v12.7h3.8c1,0,4.7,0.1,5.3,0c2-0.2,2-1.7,2-1.7c0.2-0.7,0.3-1.5,0.4-2.1h1.5v9.5h-1.5c-0.1-0.7-0.2-1.4-0.4-2.1
					c0,0,0-1.5-2-1.7c-0.5-0.1-4.2,0-5.3,0h-3.8v11.8v0.5v0.8c0,0,2.6,1.5,6,1.5c1.6,0,3.1-0.4,4.6-1C223,48,223.9,47.6,224.5,47z"
					/>
				<path fill="#FFFFFF" d="M354.5,47c0.7-0.6,1.3-1.5,1.5-2.6h0.8v6.7h-23.1v-1c0.4,0,0.8-0.1,1.4-0.3c0.6-0.2,1.1-0.3,1.4-0.5
					c0.5-0.2,0.8-0.6,0.9-1c0.1-0.4,0.2-0.8,0.2-1.4v-2.5v-2.1v-20c0-0.5-0.1-1-0.2-1.4c-0.1-0.4-0.5-0.7-0.9-1
					c-0.4-0.2-0.8-0.4-1.4-0.5c-0.6-0.2-1.1-0.2-1.4-0.3v-1h23.1v6.7H356c-0.3-1.2-0.5-1.5-1.4-2.8c-0.9-1.3-2.7-2-3.5-2.1l-9.7,0.1
					v12.7h3.8c1,0,4.7,0.1,5.3,0c2-0.2,2-1.7,2-1.7c0.2-0.7,0.3-1.5,0.4-2.1h1.5v9.5h-1.5c-0.1-0.7-0.2-1.4-0.4-2.1c0,0,0-1.5-2-1.7
					c-0.5-0.1-4.2,0-5.3,0h-3.8v11.8v0.5v0.8c0,0,2.6,1.5,6,1.5c1.6,0,3.1-0.4,4.6-1C353,48,353.8,47.6,354.5,47z"/>
</g>
<path fill="#FFFFFF" d="M4,21.7c0,0,3.7-6.3,10.5-7.8c0,0,9.5-2,9.8,9.9l0.6,23.3c0,0,0.1,1.4,1.2,1.5c0.7,0,0.8-0.1,1.6-1.3
	c0,0,10.2-15.9,12.1-17.8c0,0,3.3-4.2,6.6-2.8c0,0,2.1,0.7,2.6,7c0,0,0.4,4.5-1.2,14.7c0,0-0.2,1.6,1.6,1.5c0,0,1.3-0.1,3-2.4
	c0,0,6.8-8.3,8.9-9.9c0,0,1.6-1.3,3-0.7c0,0,0.4-1.6,0.4-4.5c0-2.3-0.4-3.8-0.4-3.8s-2.4-0.9-5.2,1.7c-1.1,1-3.6,4.8-4.1,3.2
	c-0.3-3.8,0.3-14.4-8.2-15.3c-5.9-0.1-9.4,5.7-11,5.7c-2.1-0.1-0.1-12.6-7.6-16c0,0-8.8-3.4-17.3,4C6.5,15.7,4,21.7,4,21.7z"/>
<path fill="#FFFFFF" d="M55.4,50.4c-7,7.7-14.9,12.5-18.1,11.1c-1.8-0.8-1-3.5,0.4-7.6c1.6-5,0.9-5.3,0.4-5.5
	c-1.5-0.5-4.7,4.3-7.1,6.4c-3.9,3.5-6.9,4.4-9.1,4.9c-2.4,0.4-6.4,0.2-7-4.2c-0.7-3.7,0.6-11.9,0.6-11.9c0.9-5.8,0.6-8-0.2-10.9
	c-1-2.9-2.8-4.5-5-4.5c-5.9,0.1-8.3,6.9-8.4,8.5C3.3,47.4,8,52.3,10.6,55.3c8.9,9.5,20.8,9.4,24.5,9.4c21.5-1.9,27.5-20.8,27.5-20.8
	C60.9,43.9,55.4,50.4,55.4,50.4z"/>
<path fill="#FFFFFF" d="M13.5,8.9C20,5.3,24.4,5.1,28.7,6.4c7.5,2.5,8.2,12.7,8.2,13.8c0,0,0,0.1,0.1,0.1c0,0,0.1,0,0.1,0
	c2.9-1.9,5.4-4.2,8.8-4.3c10.1,0.2,10.5,14.8,10.5,14.8s0,0,0.1,0c0.1,0,0.1,0,0.1,0c3.5-4.9,7.3-4.2,7.3-4.2
	c-3.4-17.7-20.4-23-20.4-23C25.5-2.4,13.5,8.9,13.5,8.9z"/>
</svg>
